# xmcd
#
# Track frame offsets:
#	150
#	11848
#	29670
#
# Disc length: 639 seconds
#
# Revision: 3
# Processed by: cddbd v1.5.1PL0 Copyright (c) Steve Scherf et al.
# Submitted via: audiograbber 1.83.01
#
DISCID=20027d03
DTITLE=Räuber - Kölsche Junge
DYEAR=1994
DGENRE=Kölsch
TTITLE0=Kölsche Junge bütze joot
TTITLE1=Am Eigelstein es Musik
TTITLE2=Manchmal denk ich ahn doheim
EXTD=
EXTT0=
EXTT1=
EXTT2=
PLAYORDER=
